<?xml version="1.0" encoding="UTF-8" standalone="no"?>
<svg
   xmlns:dc="http://purl.org/dc/elements/1.1/"
   xmlns:cc="http://creativecommons.org/ns#"
   xmlns:rdf="http://www.w3.org/1999/02/22-rdf-syntax-ns#"
   xmlns:svg="http://www.w3.org/2000/svg"
   xmlns="http://www.w3.org/2000/svg"
   viewBox="0 0 693.89893 145.51875"
   height="145.51875"
   width="693.89893"
   xml:space="preserve"
   id="svg2"
   version="1.1"><metadata
     id="metadata8"><rdf:RDF><cc:Work
         rdf:about=""><dc:format>image/svg+xml</dc:format><dc:type
           rdf:resource="http://purl.org/dc/dcmitype/StillImage" /></cc:Work></rdf:RDF></metadata><defs
     id="defs6" /><g
     transform="matrix(1.3333333,0,0,1.3333333,0,4.9713023e-6)"
     id="g10"><g
       id="g12"><path
         id="path14"
         style="fill:#782f9a;fill-opacity:1;fill-rule:nonzero;stroke:none"
         d="m 108.098,43.262 c 1.73,0 2.976,0.508 3.742,1.519 0.762,1.012 1.144,2.387 1.144,4.117 0,1.739 -0.382,3.106 -1.144,4.094 -0.766,0.992 -2.012,1.492 -3.742,1.492 -1.778,0 -3.055,-0.5 -3.84,-1.492 -0.781,-0.988 -1.176,-2.355 -1.176,-4.094 0,-1.73 0.395,-3.105 1.176,-4.117 0.785,-1.011 2.062,-1.519 3.84,-1.519 m 17.82,-0.188 c -0.043,0.664 -0.125,1.348 -0.246,2.047 h -5.012 c 0.203,0.418 0.387,0.91 0.551,1.488 0.168,0.579 0.25,1.344 0.25,2.293 0,1.614 -0.297,3.11 -0.895,4.5 -0.601,1.383 -1.476,2.571 -2.628,3.559 -1.157,0.984 -2.571,1.777 -4.243,2.355 -1.672,0.579 -3.558,0.864 -5.66,0.864 -1.773,0 -3.363,-0.184 -4.765,-0.555 -0.704,0.457 -1.137,0.941 -1.301,1.457 -0.164,0.52 -0.25,1.004 -0.25,1.457 0,0.66 0.219,1.199 0.652,1.613 0.434,0.414 1.309,0.641 2.625,0.684 l 8.481,0.121 c 3.757,0.086 6.523,0.922 8.293,2.512 1.777,1.594 2.664,3.851 2.664,6.785 0,1.738 -0.457,3.32 -1.36,4.742 -0.91,1.43 -2.148,2.637 -3.715,3.633 -1.57,0.988 -3.425,1.754 -5.574,2.289 -2.144,0.539 -4.453,0.805 -6.926,0.805 -2.476,0 -4.582,-0.196 -6.312,-0.59 -1.738,-0.391 -3.149,-0.942 -4.238,-1.641 -1.094,-0.703 -1.879,-1.57 -2.352,-2.605 -0.477,-1.032 -0.711,-2.168 -0.711,-3.407 0,-1.859 0.442,-3.394 1.328,-4.585 0.602,-0.813 0.602,-0.813 1.582,-1.704 1.637,0.879 4.418,1.454 6.043,1.2 0.008,-0.008 0.024,-0.02 0.035,-0.028 -0.125,0.102 -0.257,0.2 -0.359,0.313 -0.348,0.39 -0.594,0.824 -0.742,1.301 -0.145,0.476 -0.215,0.941 -0.215,1.394 0,1.567 0.59,2.637 1.762,3.199 1.175,0.551 2.754,0.832 4.734,0.832 2.602,0 4.691,-0.414 6.281,-1.238 1.586,-0.832 2.383,-1.949 2.383,-3.348 0,-0.414 -0.055,-0.808 -0.156,-1.179 -0.102,-0.371 -0.297,-0.711 -0.586,-1.02 -0.293,-0.312 -0.691,-0.574 -1.207,-0.777 -0.516,-0.207 -1.207,-0.309 -2.074,-0.309 0,0 -7.176,-0.117 -7.485,-0.093 0.008,0 0.02,0 0.028,0 -2.469,-0.036 -4.766,-0.727 -6.719,-1.903 -0.82,-0.539 -1.504,-1.18 -2.004,-1.941 -0.559,-0.844 -0.836,-1.934 -0.836,-3.258 0,-1.566 0.328,-2.848 0.988,-3.844 0.657,-0.988 1.629,-1.937 2.911,-2.847 -1.446,-1.032 -2.559,-2.297 -3.34,-3.782 -0.785,-1.488 -1.176,-3.14 -1.176,-4.961 0,-1.609 0.308,-3.105 0.926,-4.492 0.621,-1.383 1.515,-2.582 2.691,-3.594 1.176,-1.015 2.609,-1.808 4.301,-2.39 1.691,-0.578 3.59,-0.867 5.695,-0.867 2.059,0 3.957,0.32 5.692,0.957 1.734,0.648 3.175,1.461 4.332,2.453 0.781,-1.035 1.75,-1.805 2.91,-2.324 1.152,-0.516 2.722,-0.774 4.703,-0.774 0.078,0.539 0.152,1.063 0.219,1.582 0.054,0.516 0.086,1.063 0.086,1.641 0,0.664 -0.02,1.32 -0.059,1.98 M 92.359,70.773 c -0.273,-0.175 -6.921,-3.496 -9.785,-3.582 -3.219,-0.101 -6.433,1.004 -10.16,3.375 -1.144,0.731 -1.984,0.731 -3.129,0 -3.652,-2.324 -6.816,-3.433 -9.972,-3.382 -2.911,0.046 -9.684,3.406 -9.977,3.589 V 41.34 c 0,-0.262 0.336,-0.684 0.754,-0.938 0.258,-0.152 0.512,-0.304 0.765,-0.445 5.543,-3.141 9.125,-3.402 15.391,-0.789 1.777,0.742 3.391,2.129 3.399,3.691 0.039,7.493 -0.004,11.27 -0.016,19.524 0,1.558 0.508,4.512 1.305,4.512 0.796,0 1.308,-2.954 1.304,-4.512 -0.008,-8.254 -0.05,-12.031 -0.015,-19.524 0.011,-1.562 1.675,-2.949 3.441,-3.695 4.785,-2.004 7.926,-2.269 11.637,-0.875 l 14.051,-13.164 2.753,2.949 -21.531,20.188 -4.312,2.051 -1.047,3.105 7.426,-2.723 7.718,-7.3 z M 46.398,60.957 c -0.828,2.129 -2.023,3.938 -3.589,5.43 -1.567,1.48 -3.489,2.633 -5.758,3.437 -2.27,0.801 -4.824,1.207 -7.672,1.207 -0.906,0 -1.867,-0.039 -2.879,-0.121 -1.008,-0.086 -2.031,-0.195 -3.062,-0.344 -1.032,-0.14 -2.02,-0.332 -2.969,-0.562 C 19.52,69.777 18.648,69.527 17.871,69.23 V 24.973 c 1.481,-0.246 2.926,-0.371 4.332,-0.371 1.442,0 2.906,0.125 4.391,0.371 V 41.34 c 0,-0.004 0.004,-0.004 0.004,-0.004 v 10.348 c 0,0.004 -0.004,0.007 -0.004,0.011 v 11.653 c 0.496,0.164 1.019,0.269 1.574,0.312 0.562,0.039 1.129,0.055 1.707,0.055 2.68,0 4.785,-0.781 6.313,-2.352 1.527,-1.57 2.289,-4.031 2.289,-7.379 0,-2.976 -0.477,-5.238 -1.426,-6.785 -0.949,-1.551 -2.559,-2.324 -4.824,-2.324 -1.653,0 -3.004,0.547 -4.059,1.641 -0.344,0.363 -0.613,0.82 -0.848,1.324 0,0 0.278,-6.059 2.368,-9.258 1.445,-0.723 3.093,-1.082 4.949,-1.082 1.859,0 3.578,0.328 5.168,0.988 1.59,0.66 2.961,1.664 4.117,3.004 1.152,1.344 2.062,3.031 2.723,5.055 0.656,2.027 0.992,4.422 0.992,7.187 0,2.692 -0.414,5.102 -1.239,7.223 M 133.996,0 H 9.883 C 4.445,0 0,4.453 0,9.898 v 89.348 c 0,5.442 4.445,9.895 9.883,9.895 h 124.113 c 5.434,0 9.879,-4.453 9.879,-9.895 V 9.898 C 143.875,4.453 139.43,0 133.996,0" /><path
         id="path16"
         style="fill:#82358c;fill-opacity:1;fill-rule:nonzero;stroke:none"
         d="m 168.727,93.785 c -0.188,0 -0.375,-0.008 -0.563,-0.015 -0.187,0 -0.324,-0.012 -0.406,-0.032 L 165.68,80.957 c 0.144,-0.031 0.273,-0.047 0.39,-0.047 0.125,-0.008 0.258,-0.015 0.407,-0.015 0.351,0 0.675,0.023 0.968,0.062 l 1.75,11.797 4.485,-9.938 c 0.164,-0.351 0.289,-0.695 0.375,-1.031 0.082,-0.344 0.125,-0.582 0.125,-0.719 v -0.109 c 0.3,-0.039 0.582,-0.062 0.843,-0.062 0.321,0 0.629,0.023 0.922,0.062 v 0.109 c 0,0.274 -0.043,0.543 -0.125,0.813 -0.086,0.262 -0.242,0.633 -0.468,1.109 l -6.204,13.438 c -0.335,0.707 -0.664,1.285 -0.984,1.734 -0.324,0.457 -0.656,0.817 -1,1.078 -0.344,0.258 -0.695,0.438 -1.047,0.532 -0.344,0.101 -0.715,0.156 -1.109,0.156 -0.543,0 -1.063,-0.074 -1.563,-0.219 0,-0.293 0.035,-0.562 0.11,-0.812 0.082,-0.25 0.191,-0.45 0.328,-0.594 0.164,0.051 0.351,0.094 0.562,0.125 0.207,0.031 0.426,0.047 0.657,0.047 0.25,0 0.484,-0.039 0.703,-0.11 0.226,-0.074 0.461,-0.234 0.703,-0.484 0.25,-0.242 0.5,-0.586 0.75,-1.031 0.258,-0.438 0.555,-1.024 0.89,-1.75 z" /><path
         id="path18"
         style="fill:#82358c;fill-opacity:1;fill-rule:nonzero;stroke:none"
         d="m 181.746,92.582 c 0.906,0 1.676,-0.223 2.313,-0.672 0.644,-0.445 1.175,-1.015 1.593,-1.703 0.414,-0.687 0.723,-1.445 0.922,-2.281 0.196,-0.832 0.297,-1.625 0.297,-2.375 0,-1.102 -0.258,-1.953 -0.766,-2.547 -0.5,-0.594 -1.203,-0.891 -2.109,-0.891 -0.898,0 -1.668,0.231 -2.312,0.688 -0.637,0.449 -1.164,1.015 -1.579,1.703 -0.417,0.68 -0.73,1.437 -0.937,2.281 -0.199,0.836 -0.297,1.625 -0.297,2.375 0,1.094 0.254,1.938 0.766,2.531 0.508,0.594 1.211,0.891 2.109,0.891 z m -0.172,1.453 c -1.418,0 -2.515,-0.41 -3.297,-1.234 -0.773,-0.821 -1.156,-2.031 -1.156,-3.625 0,-0.863 0.133,-1.789 0.406,-2.781 0.282,-1 0.707,-1.922 1.282,-2.766 0.57,-0.852 1.304,-1.563 2.203,-2.125 0.894,-0.563 1.945,-0.844 3.156,-0.844 1.414,0 2.508,0.418 3.281,1.25 0.781,0.824 1.172,2.028 1.172,3.61 0,0.875 -0.141,1.808 -0.422,2.796 -0.273,0.993 -0.695,1.914 -1.265,2.766 -0.575,0.856 -1.309,1.563 -2.204,2.125 -0.886,0.551 -1.937,0.828 -3.156,0.828 z" /><path
         id="path20"
         style="fill:#82358c;fill-opacity:1;fill-rule:nonzero;stroke:none"
         d="m 192.863,80.957 c 0.102,-0.008 0.239,-0.019 0.407,-0.031 0.175,-0.008 0.32,-0.016 0.437,-0.016 0.102,0 0.242,0.008 0.422,0.016 0.176,0.012 0.305,0.023 0.391,0.031 l -1.329,7.578 c -0.054,0.293 -0.093,0.602 -0.125,0.922 -0.031,0.313 -0.046,0.59 -0.046,0.828 0,0.805 0.187,1.375 0.562,1.719 0.383,0.336 0.879,0.5 1.484,0.5 0.594,0 1.161,-0.191 1.704,-0.578 0.539,-0.395 1.035,-0.922 1.484,-1.578 0.457,-0.664 0.848,-1.426 1.172,-2.282 0.32,-0.863 0.566,-1.757 0.734,-2.687 l 0.781,-4.422 c 0.094,-0.008 0.227,-0.019 0.407,-0.031 0.175,-0.008 0.32,-0.016 0.437,-0.016 0.102,0 0.238,0.008 0.406,0.016 0.176,0.012 0.305,0.023 0.391,0.031 l -1.297,7.469 c -0.168,0.961 -0.312,1.765 -0.437,2.422 -0.125,0.656 -0.188,1.289 -0.188,1.89 0,0.231 0.004,0.418 0.016,0.563 0.008,0.148 0.031,0.308 0.062,0.484 -0.105,0.02 -0.246,0.031 -0.422,0.031 -0.168,0.008 -0.308,0.016 -0.421,0.016 -0.106,0 -0.247,-0.008 -0.422,-0.016 -0.18,0 -0.309,-0.011 -0.391,-0.031 -0.043,-0.258 -0.062,-0.601 -0.062,-1.031 0,-0.426 0.031,-0.836 0.093,-1.234 0.063,-0.407 0.133,-0.758 0.219,-1.063 -0.148,0.356 -0.371,0.734 -0.672,1.141 -0.305,0.406 -0.664,0.797 -1.078,1.172 -0.418,0.367 -0.887,0.668 -1.406,0.906 -0.524,0.238 -1.094,0.359 -1.719,0.359 -1,0 -1.781,-0.277 -2.344,-0.828 -0.554,-0.551 -0.828,-1.359 -0.828,-2.422 0,-0.25 0.016,-0.531 0.047,-0.844 0.039,-0.32 0.082,-0.625 0.125,-0.906 z" /><path
         id="path22"
         style="fill:#82358c;fill-opacity:1;fill-rule:nonzero;stroke:none"
         d="m 205.98,86.27 c 0.165,-0.946 0.313,-1.75 0.438,-2.407 0.125,-0.664 0.187,-1.297 0.187,-1.89 0,-0.239 -0.007,-0.426 -0.015,-0.563 -0.012,-0.144 -0.031,-0.312 -0.063,-0.5 0.102,-0.008 0.239,-0.019 0.407,-0.031 0.175,-0.008 0.328,-0.016 0.453,-0.016 0.093,0 0.226,0.008 0.406,0.016 0.176,0.012 0.305,0.023 0.391,0.031 0.031,0.137 0.05,0.274 0.062,0.406 0.008,0.137 0.016,0.321 0.016,0.547 0,0.242 -0.012,0.461 -0.032,0.657 -0.023,0.199 -0.046,0.39 -0.078,0.578 0.25,-0.301 0.508,-0.582 0.782,-0.844 0.281,-0.258 0.582,-0.488 0.906,-0.688 0.32,-0.195 0.676,-0.351 1.062,-0.468 0.383,-0.125 0.817,-0.188 1.297,-0.188 0.125,0 0.258,0.008 0.406,0.016 0.145,0.012 0.258,0.031 0.344,0.062 0,0.242 -0.027,0.496 -0.078,0.766 -0.043,0.262 -0.148,0.531 -0.312,0.812 -0.032,-0.019 -0.125,-0.039 -0.282,-0.062 -0.148,-0.02 -0.289,-0.031 -0.422,-0.031 -0.449,0 -0.902,0.09 -1.359,0.265 -0.461,0.168 -0.891,0.45 -1.297,0.844 -0.398,0.398 -0.75,0.914 -1.062,1.547 -0.305,0.625 -0.539,1.391 -0.703,2.297 l -1.11,6.312 c -0.094,0.02 -0.23,0.032 -0.406,0.032 -0.18,0.007 -0.324,0.015 -0.438,0.015 -0.105,0 -0.246,-0.008 -0.421,-0.015 -0.168,0 -0.293,-0.012 -0.375,-0.032 z" /><path
         id="path24"
         style="fill:#82358c;fill-opacity:1;fill-rule:nonzero;stroke:none"
         d="m 231.047,91.691 c 0.133,0.25 0.25,0.493 0.344,0.719 0.101,0.231 0.179,0.477 0.234,0.735 -0.562,0.281 -1.242,0.5 -2.031,0.656 -0.781,0.156 -1.606,0.234 -2.469,0.234 -1.219,0 -2.336,-0.199 -3.344,-0.594 -1,-0.406 -1.859,-0.988 -2.578,-1.75 -0.719,-0.769 -1.281,-1.722 -1.687,-2.859 -0.399,-1.133 -0.594,-2.437 -0.594,-3.906 0,-1.508 0.195,-2.852 0.594,-4.031 0.394,-1.176 0.945,-2.165 1.656,-2.969 0.707,-0.813 1.562,-1.43 2.562,-1.86 1.008,-0.425 2.141,-0.64 3.391,-0.64 1.051,0 1.926,0.078 2.625,0.234 0.695,0.149 1.207,0.274 1.531,0.375 -0.031,0.305 -0.078,0.555 -0.14,0.75 -0.063,0.199 -0.153,0.438 -0.266,0.719 -0.219,-0.063 -0.445,-0.125 -0.672,-0.188 -0.219,-0.07 -0.469,-0.132 -0.75,-0.187 -0.281,-0.051 -0.609,-0.094 -0.984,-0.125 -0.375,-0.031 -0.813,-0.047 -1.313,-0.047 -0.992,0 -1.875,0.184 -2.656,0.547 -0.781,0.355 -1.449,0.875 -2,1.562 -0.555,0.68 -0.98,1.512 -1.281,2.5 -0.293,0.993 -0.438,2.11 -0.438,3.36 0,1.281 0.164,2.402 0.5,3.359 0.332,0.949 0.789,1.735 1.375,2.36 0.594,0.625 1.285,1.089 2.078,1.39 0.789,0.305 1.645,0.453 2.563,0.453 0.789,0 1.504,-0.07 2.141,-0.218 0.644,-0.157 1.179,-0.348 1.609,-0.579 z" /><path
         id="path26"
         style="fill:#82358c;fill-opacity:1;fill-rule:nonzero;stroke:none"
         d="m 235.52,87.598 c 0,1.711 0.39,2.965 1.171,3.765 0.782,0.805 1.957,1.203 3.532,1.203 0.632,0 1.222,-0.05 1.765,-0.156 0.539,-0.113 1.067,-0.265 1.578,-0.453 0.082,0.188 0.149,0.418 0.204,0.688 0.05,0.261 0.082,0.5 0.093,0.718 -0.48,0.219 -1.047,0.383 -1.703,0.5 -0.648,0.114 -1.351,0.172 -2.109,0.172 -1.106,0 -2.055,-0.164 -2.844,-0.484 -0.793,-0.321 -1.445,-0.774 -1.953,-1.36 -0.512,-0.582 -0.887,-1.281 -1.125,-2.093 -0.242,-0.813 -0.359,-1.703 -0.359,-2.672 0,-0.938 0.109,-1.813 0.328,-2.625 0.226,-0.821 0.57,-1.539 1.031,-2.156 0.457,-0.614 1.047,-1.098 1.766,-1.454 0.718,-0.351 1.578,-0.531 2.578,-0.531 0.832,0 1.57,0.149 2.218,0.438 0.657,0.281 1.204,0.679 1.641,1.187 0.438,0.512 0.77,1.121 1,1.828 0.227,0.711 0.344,1.481 0.344,2.313 0,0.148 -0.008,0.34 -0.016,0.578 -0.012,0.23 -0.027,0.43 -0.047,0.594 z m 7.5,-1.375 c 0,-0.52 -0.071,-1.032 -0.204,-1.532 -0.136,-0.5 -0.343,-0.937 -0.625,-1.312 -0.281,-0.375 -0.648,-0.676 -1.093,-0.906 -0.45,-0.239 -0.993,-0.36 -1.625,-0.36 -1.168,0 -2.078,0.36 -2.735,1.078 -0.648,0.719 -1.039,1.731 -1.172,3.032 z" /><path
         id="path28"
         style="fill:#82358c;fill-opacity:1;fill-rule:nonzero;stroke:none"
         d="m 248.293,80.957 c 0.133,-0.008 0.266,-0.019 0.391,-0.031 0.125,-0.008 0.242,-0.016 0.359,-0.016 0.133,0 0.258,0.008 0.375,0.016 0.113,0.012 0.238,0.023 0.375,0.031 0.031,0.305 0.051,0.684 0.062,1.141 0.02,0.449 0.032,0.84 0.032,1.172 0.164,-0.301 0.379,-0.602 0.64,-0.907 0.27,-0.312 0.582,-0.593 0.938,-0.843 0.363,-0.25 0.781,-0.454 1.25,-0.61 0.469,-0.164 0.976,-0.25 1.531,-0.25 1.457,0 2.52,0.445 3.188,1.328 0.664,0.875 1,2.106 1,3.688 v 8.062 c -0.094,0.02 -0.231,0.032 -0.407,0.032 -0.179,0.007 -0.312,0.015 -0.406,0.015 -0.086,0 -0.219,-0.008 -0.406,-0.015 -0.188,0 -0.328,-0.012 -0.422,-0.032 v -7.562 c 0,-1.414 -0.227,-2.43 -0.672,-3.047 -0.437,-0.625 -1.101,-0.938 -1.984,-0.938 -0.586,0 -1.137,0.122 -1.657,0.36 -0.511,0.23 -0.953,0.57 -1.328,1.015 -0.375,0.438 -0.672,0.985 -0.89,1.641 -0.219,0.648 -0.328,1.387 -0.328,2.219 v 6.312 c -0.094,0.02 -0.231,0.032 -0.407,0.032 -0.179,0.007 -0.312,0.015 -0.406,0.015 -0.086,0 -0.219,-0.008 -0.406,-0.015 -0.188,0 -0.328,-0.012 -0.422,-0.032 z" /><path
         id="path30"
         style="fill:#82358c;fill-opacity:1;fill-rule:nonzero;stroke:none"
         d="m 263.176,82.363 h -2.188 c -0.011,-0.082 -0.023,-0.187 -0.031,-0.312 -0.012,-0.133 -0.016,-0.27 -0.016,-0.406 0,-0.133 0.004,-0.258 0.016,-0.375 0.008,-0.125 0.02,-0.227 0.031,-0.313 h 2.188 v -2.391 l 1.547,-1.531 h 0.093 v 3.922 h 3.454 c 0.019,0.086 0.031,0.188 0.031,0.313 0.008,0.117 0.015,0.242 0.015,0.375 0,0.136 -0.007,0.273 -0.015,0.406 0,0.125 -0.012,0.23 -0.031,0.312 h -3.454 v 8.313 c 0,0.429 0.051,0.762 0.157,1 0.113,0.242 0.257,0.429 0.437,0.562 0.176,0.137 0.375,0.227 0.594,0.266 0.226,0.043 0.457,0.062 0.687,0.062 0.582,0 1.094,-0.078 1.532,-0.234 0.113,0.438 0.195,0.906 0.25,1.406 -0.606,0.188 -1.309,0.282 -2.11,0.282 -0.949,0 -1.718,-0.258 -2.312,-0.766 -0.586,-0.508 -0.875,-1.344 -0.875,-2.5 z" /><path
         id="path32"
         style="fill:#82358c;fill-opacity:1;fill-rule:nonzero;stroke:none"
         d="m 271.094,80.957 c 0.133,-0.008 0.265,-0.019 0.39,-0.031 0.125,-0.008 0.243,-0.016 0.36,-0.016 0.133,0 0.258,0.008 0.375,0.016 0.113,0.012 0.238,0.023 0.375,0.031 0.031,0.305 0.051,0.664 0.062,1.078 0.02,0.406 0.032,0.778 0.032,1.11 0.332,-0.614 0.796,-1.133 1.39,-1.563 0.602,-0.426 1.399,-0.641 2.391,-0.641 0.082,0 0.164,0 0.25,0 0.094,0 0.203,0.008 0.328,0.016 0.039,0.293 0.062,0.563 0.062,0.813 0,0.261 -0.023,0.515 -0.062,0.765 -0.137,-0.008 -0.246,-0.015 -0.328,-0.015 -0.074,0 -0.153,0 -0.235,0 -1.125,0 -2.031,0.359 -2.718,1.078 -0.688,0.718 -1.032,1.914 -1.032,3.578 v 6.562 c -0.093,0.02 -0.23,0.032 -0.406,0.032 -0.18,0.007 -0.312,0.015 -0.406,0.015 -0.086,0 -0.219,-0.008 -0.406,-0.015 -0.188,0 -0.328,-0.012 -0.422,-0.032 z" /><path
         id="path34"
         style="fill:#82358c;fill-opacity:1;fill-rule:nonzero;stroke:none"
         d="m 286.609,87.52 c -0.281,-0.032 -0.636,-0.067 -1.062,-0.11 -0.418,-0.039 -0.82,-0.062 -1.203,-0.062 -1.25,0 -2.219,0.234 -2.906,0.703 -0.68,0.469 -1.016,1.137 -1.016,2 0,0.554 0.101,0.996 0.312,1.328 0.207,0.336 0.477,0.59 0.813,0.766 0.332,0.179 0.695,0.296 1.094,0.359 0.394,0.055 0.797,0.078 1.203,0.078 0.508,0 0.988,-0.019 1.437,-0.062 0.457,-0.051 0.899,-0.118 1.328,-0.204 z m 0,-2.219 c 0,-1.102 -0.261,-1.91 -0.781,-2.422 -0.512,-0.508 -1.273,-0.766 -2.281,-0.766 -0.668,0 -1.277,0.047 -1.828,0.141 -0.555,0.094 -1.047,0.211 -1.485,0.344 -0.086,-0.157 -0.156,-0.375 -0.218,-0.657 -0.055,-0.281 -0.078,-0.546 -0.078,-0.796 0.437,-0.133 0.968,-0.25 1.593,-0.344 0.633,-0.094 1.285,-0.141 1.953,-0.141 1.625,0 2.829,0.356 3.61,1.063 0.781,0.711 1.172,1.824 1.172,3.343 v 8.454 c -0.586,0.117 -1.293,0.226 -2.125,0.343 -0.836,0.114 -1.625,0.172 -2.375,0.172 -1.555,0 -2.778,-0.305 -3.672,-0.922 -0.887,-0.613 -1.328,-1.613 -1.328,-3 0,-0.675 0.129,-1.273 0.39,-1.797 0.258,-0.531 0.617,-0.972 1.078,-1.328 0.457,-0.351 1.004,-0.625 1.641,-0.812 0.645,-0.188 1.348,-0.281 2.109,-0.281 0.602,0 1.118,0.023 1.547,0.062 0.438,0.043 0.797,0.078 1.078,0.109 z" /><path
         id="path36"
         style="fill:#82358c;fill-opacity:1;fill-rule:nonzero;stroke:none"
         d="m 292.434,75.332 c 0.093,-0.019 0.226,-0.031 0.406,-0.031 0.176,-0.008 0.316,-0.016 0.422,-0.016 0.082,0 0.211,0.008 0.39,0.016 0.188,0 0.328,0.012 0.422,0.031 v 15.453 c 0,0.438 0.051,0.778 0.156,1.016 0.102,0.242 0.227,0.418 0.375,0.531 0.145,0.106 0.313,0.172 0.5,0.203 0.188,0.024 0.352,0.031 0.5,0.031 0.188,0 0.379,-0.007 0.579,-0.031 0.195,-0.031 0.363,-0.062 0.5,-0.094 0.082,0.2 0.14,0.418 0.171,0.657 0.032,0.23 0.055,0.445 0.079,0.64 -0.243,0.082 -0.508,0.141 -0.797,0.172 -0.293,0.031 -0.563,0.047 -0.813,0.047 -0.344,0 -0.695,-0.039 -1.047,-0.109 -0.343,-0.075 -0.656,-0.211 -0.937,-0.422 -0.274,-0.207 -0.492,-0.488 -0.656,-0.844 -0.168,-0.363 -0.25,-0.836 -0.25,-1.422 z" /><path
         id="path38"
         style="fill:#82358c;fill-opacity:1;fill-rule:nonzero;stroke:none"
         d="m 305.996,75.66 c 0.363,-0.039 0.68,-0.07 0.953,-0.094 0.281,-0.019 0.547,-0.039 0.797,-0.062 0.258,-0.031 0.531,-0.051 0.813,-0.063 0.289,-0.007 0.625,-0.015 1,-0.015 0.8,0 1.586,0.086 2.359,0.25 0.781,0.168 1.477,0.461 2.094,0.875 0.613,0.406 1.109,0.961 1.484,1.656 0.375,0.688 0.563,1.559 0.563,2.609 0,0.649 -0.118,1.243 -0.344,1.782 -0.231,0.531 -0.531,1.011 -0.906,1.437 -0.375,0.43 -0.813,0.797 -1.313,1.11 -0.492,0.304 -0.992,0.554 -1.5,0.75 l -0.203,0.078 5.719,7.765 c -0.168,0.032 -0.336,0.047 -0.5,0.047 -0.168,0 -0.336,0 -0.5,0 -0.168,0 -0.328,0 -0.485,0 -0.156,0 -0.32,-0.015 -0.484,-0.047 l -6.297,-8.343 v -0.094 l 0.547,-0.156 c 0.562,-0.145 1.109,-0.336 1.641,-0.579 0.539,-0.25 1.015,-0.539 1.421,-0.875 0.407,-0.343 0.735,-0.75 0.985,-1.218 0.25,-0.469 0.375,-1.02 0.375,-1.657 0,-1.3 -0.402,-2.273 -1.203,-2.921 -0.805,-0.657 -1.887,-0.985 -3.25,-0.985 -0.344,0 -0.668,0.012 -0.969,0.031 -0.305,0.012 -0.664,0.043 -1.078,0.094 v 16.703 c -0.117,0.02 -0.258,0.032 -0.422,0.032 -0.168,0.007 -0.32,0.015 -0.453,0.015 -0.149,0 -0.297,-0.008 -0.453,-0.015 -0.149,0 -0.278,-0.012 -0.391,-0.032 z" /><path
         id="path40"
         style="fill:#82358c;fill-opacity:1;fill-rule:nonzero;stroke:none"
         d="m 320.926,87.598 c 0,1.711 0.39,2.965 1.172,3.765 0.781,0.805 1.957,1.203 3.531,1.203 0.633,0 1.223,-0.05 1.766,-0.156 0.539,-0.113 1.066,-0.265 1.578,-0.453 0.082,0.188 0.148,0.418 0.203,0.688 0.051,0.261 0.082,0.5 0.094,0.718 -0.481,0.219 -1.047,0.383 -1.704,0.5 -0.648,0.114 -1.351,0.172 -2.109,0.172 -1.105,0 -2.055,-0.164 -2.844,-0.484 -0.793,-0.321 -1.445,-0.774 -1.953,-1.36 -0.512,-0.582 -0.887,-1.281 -1.125,-2.093 -0.242,-0.813 -0.359,-1.703 -0.359,-2.672 0,-0.938 0.109,-1.813 0.328,-2.625 0.226,-0.821 0.57,-1.539 1.031,-2.156 0.457,-0.614 1.047,-1.098 1.766,-1.454 0.719,-0.351 1.578,-0.531 2.578,-0.531 0.832,0 1.57,0.149 2.219,0.438 0.656,0.281 1.203,0.679 1.64,1.187 0.438,0.512 0.77,1.121 1,1.828 0.227,0.711 0.344,1.481 0.344,2.313 0,0.148 -0.008,0.34 -0.016,0.578 -0.011,0.23 -0.027,0.43 -0.046,0.594 z m 7.5,-1.375 c 0,-0.52 -0.071,-1.032 -0.203,-1.532 -0.137,-0.5 -0.344,-0.937 -0.625,-1.312 -0.282,-0.375 -0.649,-0.676 -1.094,-0.906 -0.449,-0.239 -0.992,-0.36 -1.625,-0.36 -1.168,0 -2.078,0.36 -2.734,1.078 -0.649,0.719 -1.04,1.731 -1.172,3.032 z" /><path
         id="path42"
         style="fill:#82358c;fill-opacity:1;fill-rule:nonzero;stroke:none"
         d="m 333.336,91.988 c 0.375,0.149 0.852,0.278 1.437,0.391 0.582,0.105 1.141,0.156 1.672,0.156 1,0 1.789,-0.219 2.375,-0.656 0.582,-0.445 0.875,-0.992 0.875,-1.641 0,-0.457 -0.09,-0.832 -0.265,-1.125 -0.18,-0.289 -0.414,-0.535 -0.703,-0.734 -0.293,-0.195 -0.622,-0.359 -0.985,-0.484 -0.367,-0.125 -0.742,-0.254 -1.125,-0.391 -0.418,-0.133 -0.828,-0.285 -1.234,-0.453 -0.406,-0.164 -0.774,-0.379 -1.094,-0.641 -0.312,-0.258 -0.57,-0.57 -0.766,-0.937 -0.187,-0.364 -0.281,-0.821 -0.281,-1.375 0,-1.02 0.367,-1.848 1.11,-2.485 0.738,-0.633 1.882,-0.953 3.437,-0.953 0.656,0 1.285,0.063 1.891,0.188 0.601,0.117 1.07,0.242 1.406,0.375 -0.086,0.48 -0.199,0.953 -0.344,1.422 -0.355,-0.114 -0.804,-0.227 -1.344,-0.344 -0.543,-0.125 -1.105,-0.188 -1.687,-0.188 -1.012,0 -1.731,0.184 -2.156,0.547 -0.43,0.356 -0.641,0.824 -0.641,1.406 0,0.325 0.066,0.602 0.203,0.829 0.145,0.218 0.336,0.406 0.578,0.562 0.25,0.156 0.524,0.297 0.828,0.422 0.313,0.117 0.645,0.219 1,0.312 0.446,0.157 0.899,0.325 1.36,0.5 0.457,0.18 0.875,0.407 1.25,0.688 0.375,0.281 0.68,0.641 0.922,1.078 0.238,0.43 0.359,0.969 0.359,1.625 0,0.606 -0.121,1.152 -0.359,1.641 -0.242,0.492 -0.578,0.906 -1.016,1.25 -0.43,0.343 -0.945,0.605 -1.547,0.781 -0.605,0.187 -1.262,0.281 -1.969,0.281 -0.804,0 -1.515,-0.055 -2.14,-0.156 -0.625,-0.094 -1.133,-0.223 -1.516,-0.391 0.102,-0.5 0.258,-1 0.469,-1.5 z" /><path
         id="path44"
         style="fill:#82358c;fill-opacity:1;fill-rule:nonzero;stroke:none"
         d="m 346.023,87.598 c 0,1.711 0.391,2.965 1.172,3.765 0.782,0.805 1.957,1.203 3.532,1.203 0.632,0 1.222,-0.05 1.765,-0.156 0.539,-0.113 1.067,-0.265 1.578,-0.453 0.082,0.188 0.149,0.418 0.203,0.688 0.051,0.261 0.082,0.5 0.094,0.718 -0.48,0.219 -1.047,0.383 -1.703,0.5 -0.648,0.114 -1.351,0.172 -2.109,0.172 -1.106,0 -2.055,-0.164 -2.844,-0.484 -0.793,-0.321 -1.445,-0.774 -1.953,-1.36 -0.512,-0.582 -0.887,-1.281 -1.125,-2.093 -0.242,-0.813 -0.36,-1.703 -0.36,-2.672 0,-0.938 0.11,-1.813 0.329,-2.625 0.226,-0.821 0.57,-1.539 1.031,-2.156 0.457,-0.614 1.047,-1.098 1.765,-1.454 0.719,-0.351 1.579,-0.531 2.579,-0.531 0.832,0 1.57,0.149 2.218,0.438 0.657,0.281 1.203,0.679 1.641,1.187 0.437,0.512 0.769,1.121 1,1.828 0.227,0.711 0.344,1.481 0.344,2.313 0,0.148 -0.008,0.34 -0.016,0.578 -0.012,0.23 -0.027,0.43 -0.047,0.594 z m 7.5,-1.375 c 0,-0.52 -0.07,-1.032 -0.203,-1.532 -0.136,-0.5 -0.343,-0.937 -0.625,-1.312 -0.281,-0.375 -0.648,-0.676 -1.093,-0.906 -0.45,-0.239 -0.993,-0.36 -1.625,-0.36 -1.168,0 -2.079,0.36 -2.735,1.078 -0.648,0.719 -1.039,1.731 -1.172,3.032 z" /><path
         id="path46"
         style="fill:#82358c;fill-opacity:1;fill-rule:nonzero;stroke:none"
         d="m 358.797,80.957 c 0.133,-0.008 0.266,-0.019 0.391,-0.031 0.125,-0.008 0.242,-0.016 0.359,-0.016 0.133,0 0.258,0.008 0.375,0.016 0.113,0.012 0.238,0.023 0.375,0.031 0.031,0.305 0.051,0.664 0.062,1.078 0.02,0.406 0.032,0.778 0.032,1.11 0.332,-0.614 0.797,-1.133 1.39,-1.563 0.602,-0.426 1.399,-0.641 2.391,-0.641 0.082,0 0.164,0 0.25,0 0.094,0 0.203,0.008 0.328,0.016 0.039,0.293 0.063,0.563 0.063,0.813 0,0.261 -0.024,0.515 -0.063,0.765 -0.137,-0.008 -0.246,-0.015 -0.328,-0.015 -0.074,0 -0.152,0 -0.234,0 -1.125,0 -2.032,0.359 -2.719,1.078 -0.688,0.718 -1.031,1.914 -1.031,3.578 v 6.562 c -0.094,0.02 -0.231,0.032 -0.407,0.032 -0.179,0.007 -0.312,0.015 -0.406,0.015 -0.086,0 -0.219,-0.008 -0.406,-0.015 -0.188,0 -0.328,-0.012 -0.422,-0.032 z" /><path
         id="path48"
         style="fill:#82358c;fill-opacity:1;fill-rule:nonzero;stroke:none"
         d="m 365.988,80.957 c 0.094,-0.008 0.227,-0.019 0.407,-0.031 0.187,-0.008 0.363,-0.016 0.531,-0.016 0.133,0 0.301,0.008 0.5,0.016 0.207,0.012 0.359,0.023 0.453,0.031 l 4.031,11.047 4.094,-11.047 c 0.101,-0.008 0.238,-0.019 0.406,-0.031 0.164,-0.008 0.317,-0.016 0.453,-0.016 0.125,0 0.27,0.008 0.438,0.016 0.164,0.012 0.301,0.023 0.406,0.031 l -5.078,12.781 c -0.25,0.051 -0.508,0.078 -0.766,0.078 -0.273,0 -0.543,-0.027 -0.812,-0.078 z" /><path
         id="path50"
         style="fill:#82358c;fill-opacity:1;fill-rule:nonzero;stroke:none"
         d="m 387.59,87.52 c -0.281,-0.032 -0.637,-0.067 -1.063,-0.11 -0.418,-0.039 -0.82,-0.062 -1.203,-0.062 -1.25,0 -2.219,0.234 -2.906,0.703 -0.68,0.469 -1.016,1.137 -1.016,2 0,0.554 0.102,0.996 0.313,1.328 0.207,0.336 0.476,0.59 0.812,0.766 0.332,0.179 0.696,0.296 1.094,0.359 0.395,0.055 0.797,0.078 1.203,0.078 0.508,0 0.989,-0.019 1.438,-0.062 0.457,-0.051 0.898,-0.118 1.328,-0.204 z m 0,-2.219 c 0,-1.102 -0.262,-1.91 -0.781,-2.422 -0.512,-0.508 -1.274,-0.766 -2.282,-0.766 -0.668,0 -1.277,0.047 -1.828,0.141 -0.554,0.094 -1.047,0.211 -1.484,0.344 -0.086,-0.157 -0.156,-0.375 -0.219,-0.657 -0.055,-0.281 -0.078,-0.546 -0.078,-0.796 0.437,-0.133 0.969,-0.25 1.594,-0.344 0.633,-0.094 1.285,-0.141 1.953,-0.141 1.625,0 2.828,0.356 3.609,1.063 0.781,0.711 1.172,1.824 1.172,3.343 v 8.454 c -0.586,0.117 -1.293,0.226 -2.125,0.343 -0.836,0.114 -1.625,0.172 -2.375,0.172 -1.555,0 -2.777,-0.305 -3.672,-0.922 -0.886,-0.613 -1.328,-1.613 -1.328,-3 0,-0.675 0.129,-1.273 0.391,-1.797 0.258,-0.531 0.617,-0.972 1.078,-1.328 0.457,-0.351 1.004,-0.625 1.64,-0.812 0.645,-0.188 1.348,-0.281 2.11,-0.281 0.601,0 1.117,0.023 1.547,0.062 0.437,0.043 0.797,0.078 1.078,0.109 z" /><path
         id="path52"
         style="fill:#82358c;fill-opacity:1;fill-rule:nonzero;stroke:none"
         d="m 393.996,82.363 h -2.187 c -0.012,-0.082 -0.024,-0.187 -0.032,-0.312 -0.011,-0.133 -0.015,-0.27 -0.015,-0.406 0,-0.133 0.004,-0.258 0.015,-0.375 0.008,-0.125 0.02,-0.227 0.032,-0.313 h 2.187 v -2.391 l 1.547,-1.531 h 0.094 v 3.922 h 3.453 c 0.019,0.086 0.031,0.188 0.031,0.313 0.008,0.117 0.016,0.242 0.016,0.375 0,0.136 -0.008,0.273 -0.016,0.406 0,0.125 -0.012,0.23 -0.031,0.312 h -3.453 v 8.313 c 0,0.429 0.051,0.762 0.156,1 0.113,0.242 0.258,0.429 0.437,0.562 0.176,0.137 0.375,0.227 0.594,0.266 0.227,0.043 0.457,0.062 0.688,0.062 0.582,0 1.093,-0.078 1.531,-0.234 0.113,0.438 0.195,0.906 0.25,1.406 -0.605,0.188 -1.309,0.282 -2.109,0.282 -0.95,0 -1.719,-0.258 -2.313,-0.766 -0.586,-0.508 -0.875,-1.344 -0.875,-2.5 z" /><path
         id="path54"
         style="fill:#82358c;fill-opacity:1;fill-rule:nonzero;stroke:none"
         d="m 402.68,82.363 h -1.594 c -0.023,-0.082 -0.039,-0.179 -0.047,-0.297 0,-0.113 0,-0.238 0,-0.375 0,-0.132 0,-0.269 0,-0.406 0.008,-0.133 0.024,-0.242 0.047,-0.328 h 3.25 v 12.781 c -0.106,0.02 -0.246,0.032 -0.422,0.032 -0.168,0.007 -0.305,0.015 -0.406,0.015 -0.086,0 -0.219,-0.008 -0.406,-0.015 -0.18,0 -0.321,-0.012 -0.422,-0.032 z m -0.813,-4.531 c -0.023,-0.144 -0.039,-0.328 -0.047,-0.547 -0.011,-0.219 -0.015,-0.398 -0.015,-0.547 0,-0.133 0.004,-0.3 0.015,-0.5 0.008,-0.207 0.024,-0.379 0.047,-0.515 0.145,-0.008 0.328,-0.02 0.547,-0.032 0.219,-0.007 0.399,-0.015 0.547,-0.015 0.133,0 0.301,0.008 0.5,0.015 0.195,0.012 0.363,0.024 0.5,0.032 0.019,0.136 0.031,0.308 0.031,0.515 0.008,0.2 0.016,0.367 0.016,0.5 0,0.149 -0.008,0.328 -0.016,0.547 0,0.219 -0.012,0.403 -0.031,0.547 -0.137,0.023 -0.305,0.039 -0.5,0.047 -0.199,0 -0.367,0 -0.5,0 -0.148,0 -0.328,0 -0.547,0 -0.219,-0.008 -0.402,-0.024 -0.547,-0.047 z" /><path
         id="path56"
         style="fill:#82358c;fill-opacity:1;fill-rule:nonzero;stroke:none"
         d="m 413.719,92.582 c 1.332,0 2.328,-0.461 2.984,-1.391 0.664,-0.937 1,-2.218 1,-3.843 0,-1.614 -0.336,-2.891 -1,-3.828 -0.656,-0.938 -1.652,-1.407 -2.984,-1.407 -1.336,0 -2.328,0.469 -2.985,1.407 -0.656,0.937 -0.984,2.214 -0.984,3.828 0,1.625 0.328,2.906 0.984,3.843 0.657,0.93 1.649,1.391 2.985,1.391 z m 0,1.453 c -0.949,0 -1.781,-0.168 -2.5,-0.5 -0.719,-0.344 -1.321,-0.816 -1.797,-1.422 -0.469,-0.601 -0.824,-1.312 -1.063,-2.125 -0.23,-0.82 -0.343,-1.703 -0.343,-2.64 0,-0.938 0.113,-1.813 0.343,-2.625 0.239,-0.821 0.594,-1.532 1.063,-2.125 0.476,-0.602 1.078,-1.078 1.797,-1.422 0.719,-0.344 1.551,-0.516 2.5,-0.516 0.945,0 1.773,0.172 2.484,0.516 0.707,0.344 1.301,0.82 1.781,1.422 0.477,0.593 0.836,1.304 1.079,2.125 0.238,0.812 0.359,1.687 0.359,2.625 0,0.937 -0.121,1.82 -0.359,2.64 -0.243,0.813 -0.602,1.524 -1.079,2.125 -0.48,0.606 -1.074,1.078 -1.781,1.422 -0.711,0.332 -1.539,0.5 -2.484,0.5 z" /><path
         id="path58"
         style="fill:#82358c;fill-opacity:1;fill-rule:nonzero;stroke:none"
         d="m 423.105,80.957 c 0.133,-0.008 0.266,-0.019 0.391,-0.031 0.125,-0.008 0.242,-0.016 0.359,-0.016 0.133,0 0.258,0.008 0.375,0.016 0.114,0.012 0.239,0.023 0.375,0.031 0.032,0.305 0.051,0.684 0.063,1.141 0.02,0.449 0.031,0.84 0.031,1.172 0.164,-0.301 0.379,-0.602 0.641,-0.907 0.269,-0.312 0.582,-0.593 0.937,-0.843 0.364,-0.25 0.782,-0.454 1.25,-0.61 0.469,-0.164 0.977,-0.25 1.532,-0.25 1.457,0 2.519,0.445 3.187,1.328 0.664,0.875 1,2.106 1,3.688 v 8.062 c -0.094,0.02 -0.23,0.032 -0.406,0.032 -0.18,0.007 -0.313,0.015 -0.406,0.015 -0.086,0 -0.219,-0.008 -0.407,-0.015 -0.187,0 -0.328,-0.012 -0.422,-0.032 v -7.562 c 0,-1.414 -0.226,-2.43 -0.671,-3.047 -0.438,-0.625 -1.102,-0.938 -1.985,-0.938 -0.586,0 -1.136,0.122 -1.656,0.36 -0.512,0.23 -0.953,0.57 -1.328,1.015 -0.375,0.438 -0.672,0.985 -0.891,1.641 -0.219,0.648 -0.328,1.387 -0.328,2.219 v 6.312 c -0.094,0.02 -0.23,0.032 -0.406,0.032 -0.18,0.007 -0.313,0.015 -0.406,0.015 -0.086,0 -0.219,-0.008 -0.407,-0.015 -0.187,0 -0.328,-0.012 -0.422,-0.032 z" /><path
         id="path60"
         style="fill:#82358c;fill-opacity:1;fill-rule:nonzero;stroke:none"
         d="m 443.305,91.738 c 0.238,0.063 0.484,0.137 0.734,0.219 0.25,0.086 0.524,0.164 0.828,0.234 0.313,0.063 0.66,0.122 1.047,0.172 0.383,0.055 0.828,0.078 1.328,0.078 0.789,0 1.473,-0.093 2.047,-0.281 0.582,-0.195 1.063,-0.457 1.438,-0.781 0.375,-0.332 0.648,-0.719 0.828,-1.156 0.187,-0.446 0.281,-0.926 0.281,-1.438 0,-0.5 -0.063,-0.926 -0.188,-1.281 -0.125,-0.363 -0.343,-0.695 -0.656,-1 -0.304,-0.301 -0.726,-0.586 -1.265,-0.859 -0.543,-0.282 -1.227,-0.579 -2.047,-0.891 -0.586,-0.219 -1.137,-0.453 -1.657,-0.703 -0.523,-0.25 -0.984,-0.551 -1.39,-0.906 -0.399,-0.364 -0.715,-0.797 -0.953,-1.297 -0.231,-0.508 -0.344,-1.141 -0.344,-1.891 0,-1.344 0.484,-2.43 1.453,-3.266 0.977,-0.843 2.399,-1.265 4.266,-1.265 0.375,0 0.75,0.023 1.125,0.062 0.375,0.032 0.722,0.075 1.047,0.125 0.32,0.043 0.617,0.102 0.89,0.172 0.281,0.063 0.504,0.121 0.672,0.172 -0.031,0.25 -0.078,0.508 -0.141,0.766 -0.062,0.261 -0.136,0.507 -0.218,0.734 -0.399,-0.133 -0.907,-0.254 -1.532,-0.359 -0.625,-0.114 -1.246,-0.172 -1.859,-0.172 -1.387,0 -2.383,0.289 -2.984,0.859 -0.594,0.563 -0.891,1.281 -0.891,2.156 0,0.45 0.086,0.84 0.266,1.172 0.187,0.336 0.441,0.625 0.765,0.875 0.321,0.25 0.707,0.481 1.157,0.688 0.457,0.211 0.941,0.418 1.453,0.625 0.707,0.281 1.363,0.574 1.968,0.875 0.602,0.304 1.125,0.652 1.563,1.047 0.437,0.398 0.781,0.871 1.031,1.422 0.25,0.543 0.375,1.195 0.375,1.953 0,0.875 -0.156,1.652 -0.469,2.328 -0.312,0.679 -0.75,1.246 -1.312,1.703 -0.563,0.461 -1.258,0.809 -2.078,1.047 -0.813,0.238 -1.731,0.359 -2.75,0.359 -0.981,0 -1.797,-0.074 -2.453,-0.219 -0.649,-0.132 -1.25,-0.296 -1.813,-0.484 0.031,-0.25 0.086,-0.519 0.172,-0.812 0.082,-0.29 0.172,-0.551 0.266,-0.782 z" /><path
         id="path62"
         style="fill:#82358c;fill-opacity:1;fill-rule:nonzero;stroke:none"
         d="m 461.406,93.785 h -0.468 c -0.157,0 -0.329,-0.008 -0.516,-0.015 -0.188,0 -0.336,-0.012 -0.438,-0.032 l -4.593,-12.781 c 0.093,-0.008 0.226,-0.019 0.406,-0.031 0.187,-0.008 0.363,-0.016 0.531,-0.016 0.133,0 0.301,0.008 0.5,0.016 0.207,0.012 0.36,0.023 0.453,0.031 l 4.235,12.438 4.14,-12.438 c 0.102,-0.008 0.239,-0.019 0.407,-0.031 0.164,-0.008 0.316,-0.016 0.453,-0.016 0.125,0 0.269,0.008 0.437,0.016 0.164,0.012 0.301,0.023 0.406,0.031 l -5.593,16.563 c -0.305,0.914 -0.731,1.554 -1.282,1.921 -0.554,0.375 -1.203,0.563 -1.953,0.563 -0.343,0 -0.699,-0.039 -1.062,-0.109 -0.356,-0.063 -0.653,-0.125 -0.891,-0.188 0,-0.523 0.125,-0.992 0.375,-1.406 0.133,0.051 0.332,0.101 0.594,0.156 0.269,0.063 0.57,0.094 0.906,0.094 0.488,0 0.879,-0.121 1.172,-0.36 0.289,-0.23 0.547,-0.664 0.766,-1.296 z" /><path
         id="path64"
         style="fill:#82358c;fill-opacity:1;fill-rule:nonzero;stroke:none"
         d="m 469.723,91.988 c 0.375,0.149 0.851,0.278 1.437,0.391 0.582,0.105 1.141,0.156 1.672,0.156 1,0 1.789,-0.219 2.375,-0.656 0.582,-0.445 0.875,-0.992 0.875,-1.641 0,-0.457 -0.09,-0.832 -0.266,-1.125 -0.179,-0.289 -0.414,-0.535 -0.703,-0.734 -0.293,-0.195 -0.621,-0.359 -0.984,-0.484 -0.367,-0.125 -0.742,-0.254 -1.125,-0.391 -0.418,-0.133 -0.828,-0.285 -1.234,-0.453 -0.407,-0.164 -0.774,-0.379 -1.094,-0.641 -0.313,-0.258 -0.571,-0.57 -0.766,-0.937 -0.187,-0.364 -0.281,-0.821 -0.281,-1.375 0,-1.02 0.367,-1.848 1.109,-2.485 0.739,-0.633 1.883,-0.953 3.438,-0.953 0.656,0 1.285,0.063 1.89,0.188 0.602,0.117 1.071,0.242 1.407,0.375 -0.086,0.48 -0.2,0.953 -0.344,1.422 -0.356,-0.114 -0.805,-0.227 -1.344,-0.344 -0.543,-0.125 -1.105,-0.188 -1.687,-0.188 -1.012,0 -1.731,0.184 -2.157,0.547 -0.429,0.356 -0.64,0.824 -0.64,1.406 0,0.325 0.066,0.602 0.203,0.829 0.144,0.218 0.336,0.406 0.578,0.562 0.25,0.156 0.523,0.297 0.828,0.422 0.313,0.117 0.645,0.219 1,0.312 0.445,0.157 0.899,0.325 1.36,0.5 0.457,0.18 0.875,0.407 1.25,0.688 0.375,0.281 0.679,0.641 0.921,1.078 0.239,0.43 0.36,0.969 0.36,1.625 0,0.606 -0.121,1.152 -0.36,1.641 -0.242,0.492 -0.578,0.906 -1.015,1.25 -0.43,0.343 -0.946,0.605 -1.547,0.781 -0.606,0.187 -1.262,0.281 -1.969,0.281 -0.805,0 -1.515,-0.055 -2.14,-0.156 -0.625,-0.094 -1.133,-0.223 -1.516,-0.391 0.101,-0.5 0.258,-1 0.469,-1.5 z" /><path
         id="path66"
         style="fill:#82358c;fill-opacity:1;fill-rule:nonzero;stroke:none"
         d="m 481.938,82.363 h -2.188 c -0.012,-0.082 -0.023,-0.187 -0.031,-0.312 -0.012,-0.133 -0.016,-0.27 -0.016,-0.406 0,-0.133 0.004,-0.258 0.016,-0.375 0.008,-0.125 0.019,-0.227 0.031,-0.313 h 2.188 v -2.391 l 1.546,-1.531 h 0.094 v 3.922 h 3.453 c 0.02,0.086 0.032,0.188 0.032,0.313 0.007,0.117 0.015,0.242 0.015,0.375 0,0.136 -0.008,0.273 -0.015,0.406 0,0.125 -0.012,0.23 -0.032,0.312 h -3.453 v 8.313 c 0,0.429 0.051,0.762 0.156,1 0.114,0.242 0.258,0.429 0.438,0.562 0.176,0.137 0.375,0.227 0.594,0.266 0.226,0.043 0.457,0.062 0.687,0.062 0.582,0 1.094,-0.078 1.531,-0.234 0.114,0.438 0.196,0.906 0.25,1.406 -0.605,0.188 -1.308,0.282 -2.109,0.282 -0.949,0 -1.719,-0.258 -2.312,-0.766 -0.586,-0.508 -0.875,-1.344 -0.875,-2.5 z" /><path
         id="path68"
         style="fill:#82358c;fill-opacity:1;fill-rule:nonzero;stroke:none"
         d="m 490.902,87.598 c 0,1.711 0.391,2.965 1.172,3.765 0.781,0.805 1.957,1.203 3.531,1.203 0.633,0 1.223,-0.05 1.766,-0.156 0.539,-0.113 1.067,-0.265 1.578,-0.453 0.082,0.188 0.149,0.418 0.203,0.688 0.051,0.261 0.082,0.5 0.094,0.718 -0.48,0.219 -1.047,0.383 -1.703,0.5 -0.648,0.114 -1.352,0.172 -2.109,0.172 -1.106,0 -2.055,-0.164 -2.844,-0.484 -0.793,-0.321 -1.445,-0.774 -1.953,-1.36 -0.512,-0.582 -0.887,-1.281 -1.125,-2.093 -0.242,-0.813 -0.36,-1.703 -0.36,-2.672 0,-0.938 0.11,-1.813 0.328,-2.625 0.227,-0.821 0.571,-1.539 1.032,-2.156 0.457,-0.614 1.047,-1.098 1.765,-1.454 0.719,-0.351 1.578,-0.531 2.578,-0.531 0.833,0 1.571,0.149 2.219,0.438 0.656,0.281 1.203,0.679 1.641,1.187 0.437,0.512 0.769,1.121 1,1.828 0.226,0.711 0.344,1.481 0.344,2.313 0,0.148 -0.008,0.34 -0.016,0.578 -0.012,0.23 -0.027,0.43 -0.047,0.594 z m 7.5,-1.375 c 0,-0.52 -0.07,-1.032 -0.203,-1.532 -0.136,-0.5 -0.344,-0.937 -0.625,-1.312 -0.281,-0.375 -0.648,-0.676 -1.094,-0.906 -0.449,-0.239 -0.992,-0.36 -1.625,-0.36 -1.167,0 -2.078,0.36 -2.734,1.078 -0.648,0.719 -1.039,1.731 -1.172,3.032 z" /><path
         id="path70"
         style="fill:#82358c;fill-opacity:1;fill-rule:nonzero;stroke:none"
         d="m 503.676,80.957 c 0.133,-0.008 0.265,-0.019 0.39,-0.031 0.125,-0.008 0.243,-0.016 0.36,-0.016 0.133,0 0.258,0.008 0.375,0.016 0.113,0.012 0.238,0.023 0.375,0.031 0.031,0.305 0.051,0.664 0.062,1.078 0.02,0.418 0.032,0.797 0.032,1.141 0.156,-0.321 0.347,-0.633 0.578,-0.938 0.226,-0.3 0.5,-0.566 0.812,-0.797 0.32,-0.238 0.688,-0.425 1.094,-0.562 0.414,-0.145 0.879,-0.219 1.391,-0.219 0.488,0 0.906,0.063 1.25,0.188 0.351,0.117 0.656,0.277 0.906,0.484 0.258,0.211 0.476,0.453 0.656,0.734 0.176,0.282 0.336,0.602 0.484,0.954 0.188,-0.27 0.395,-0.547 0.625,-0.829 0.239,-0.281 0.504,-0.535 0.797,-0.765 0.301,-0.227 0.649,-0.41 1.047,-0.547 0.395,-0.145 0.832,-0.219 1.313,-0.219 1.476,0 2.547,0.43 3.203,1.281 0.664,0.856 1,2.075 1,3.657 v 8.14 c -0.106,0.02 -0.246,0.032 -0.422,0.032 -0.168,0.007 -0.305,0.015 -0.406,0.015 -0.086,0 -0.219,-0.008 -0.407,-0.015 -0.179,0 -0.32,-0.012 -0.421,-0.032 v -7.562 c 0,-1.352 -0.227,-2.352 -0.672,-3 -0.438,-0.656 -1.094,-0.985 -1.969,-0.985 -0.543,0 -1.012,0.11 -1.406,0.329 -0.399,0.218 -0.731,0.511 -1,0.875 -0.274,0.367 -0.481,0.796 -0.625,1.296 -0.137,0.493 -0.203,1.012 -0.203,1.563 v 7.484 c -0.094,0.02 -0.231,0.032 -0.407,0.032 -0.179,0.007 -0.32,0.015 -0.422,0.015 -0.086,0 -0.218,-0.008 -0.406,-0.015 -0.18,0 -0.312,-0.012 -0.406,-0.032 v -7.89 c 0,-1.282 -0.211,-2.227 -0.625,-2.844 -0.406,-0.625 -0.992,-0.938 -1.75,-0.938 -0.524,0 -1,0.133 -1.438,0.391 -0.429,0.262 -0.804,0.625 -1.125,1.094 -0.312,0.461 -0.558,1.012 -0.734,1.656 -0.18,0.648 -0.266,1.356 -0.266,2.125 v 6.406 c -0.093,0.02 -0.23,0.032 -0.406,0.032 -0.18,0.007 -0.312,0.015 -0.406,0.015 -0.086,0 -0.219,-0.008 -0.406,-0.015 -0.188,0 -0.328,-0.012 -0.422,-0.032 z" /><path
         id="path72"
         style="fill:#4f4c4d;fill-opacity:1;fill-rule:nonzero;stroke:none"
         d="m 476.715,43.98 c 0,3.961 0.992,6.833 2.965,8.586 1.984,1.75 4.851,2.633 8.609,2.633 2.02,0 3.977,-0.23 5.879,-0.683 0.039,-0.293 0.07,-0.59 0.086,-0.895 0.027,-0.32 0.039,-0.695 0.039,-1.152 0,-0.664 -0.07,-1.414 -0.188,-2.262 -0.125,-0.844 -0.332,-1.66 -0.617,-2.445 -0.461,0.078 -0.98,0.172 -1.582,0.273 -0.597,0.11 -1.203,0.153 -1.824,0.153 -0.781,0 -1.465,-0.079 -2.039,-0.247 -0.578,-0.16 -1.066,-0.472 -1.457,-0.921 -0.395,-0.457 -0.695,-1.079 -0.898,-1.868 -0.208,-0.781 -0.313,-1.816 -0.313,-3.093 v -12.59 h 7.492 c 0.125,-0.66 0.207,-1.258 0.242,-1.797 0.051,-0.531 0.067,-1.094 0.067,-1.672 0,-0.535 -0.016,-1.055 -0.067,-1.547 -0.035,-0.5 -0.117,-1.055 -0.242,-1.68 h -7.492 v -9.359 h -1.422 l -11.566,14.816 0.304,1.239 h 4.024 z m -19.606,-1.988 c 1.067,0.332 1.903,0.711 2.504,1.149 0.594,0.429 0.899,1.148 0.899,2.14 0,0.699 -0.199,1.266 -0.59,1.699 -0.395,0.438 -0.879,0.79 -1.453,1.055 -0.582,0.27 -1.211,0.461 -1.887,0.563 -0.68,0.097 -1.309,0.148 -1.887,0.148 -1.324,0 -2.593,-0.129 -3.804,-0.398 -1.223,-0.266 -2.508,-0.668 -3.871,-1.211 -0.493,1.074 -0.895,2.179 -1.207,3.32 -0.309,1.133 -0.504,2.262 -0.586,3.379 0.867,0.332 1.668,0.594 2.41,0.805 0.746,0.203 1.496,0.379 2.261,0.523 0.766,0.141 1.555,0.25 2.383,0.313 0.824,0.058 1.731,0.089 2.727,0.089 2.176,0 4.144,-0.273 5.875,-0.832 1.726,-0.562 3.207,-1.32 4.422,-2.293 1.215,-0.976 2.144,-2.125 2.785,-3.445 0.64,-1.316 0.961,-2.742 0.961,-4.273 0,-1.489 -0.184,-2.746 -0.559,-3.782 -0.371,-1.031 -0.887,-1.906 -1.547,-2.605 -0.664,-0.703 -1.449,-1.293 -2.382,-1.77 -0.926,-0.472 -1.969,-0.875 -3.129,-1.207 l -3.52,-1.05 c -1.035,-0.336 -1.828,-0.684 -2.387,-1.055 -0.554,-0.371 -0.832,-1.012 -0.832,-1.922 0,-0.949 0.387,-1.644 1.172,-2.078 0.785,-0.434 1.879,-0.652 3.285,-0.652 1.313,0 2.578,0.16 3.774,0.464 1.195,0.313 2.285,0.676 3.281,1.086 0.453,-0.867 0.836,-1.879 1.172,-3.035 0.328,-1.156 0.539,-2.273 0.621,-3.344 -1.613,-0.582 -3.195,-1.015 -4.766,-1.304 -1.57,-0.293 -3.16,-0.434 -4.765,-0.434 -3.875,0 -6.942,0.887 -9.188,2.66 -2.254,1.782 -3.375,4.239 -3.375,7.379 0,2.606 0.653,4.559 1.949,5.86 1.297,1.304 3.106,2.281 5.415,2.945 z m -23.386,-6.633 c -0.082,-1.984 -0.629,-3.586 -1.641,-4.804 -1.012,-1.219 -2.418,-1.828 -4.234,-1.828 -2.071,0 -3.633,0.578 -4.711,1.738 -1.063,1.156 -1.711,2.789 -1.91,4.894 z m -12.559,6.137 c 0.16,2.484 1.027,4.281 2.594,5.399 1.566,1.109 3.633,1.668 6.191,1.668 1.403,0 2.84,-0.137 4.301,-0.403 1.461,-0.269 2.855,-0.648 4.176,-1.14 0.457,0.82 0.844,1.812 1.176,2.968 0.332,1.164 0.511,2.399 0.558,3.719 -3.222,1.242 -6.847,1.859 -10.887,1.859 -2.968,0 -5.523,-0.41 -7.648,-1.238 -2.125,-0.828 -3.859,-1.973 -5.203,-3.437 -1.336,-1.469 -2.328,-3.211 -2.965,-5.235 -0.641,-2.031 -0.961,-4.242 -0.961,-6.636 0,-2.36 0.332,-4.567 0.992,-6.633 0.66,-2.071 1.641,-3.864 2.934,-5.395 1.301,-1.527 2.914,-2.734 4.836,-3.625 1.918,-0.89 4.152,-1.332 6.711,-1.332 2.226,0 4.215,0.391 5.941,1.172 1.731,0.789 3.203,1.863 4.43,3.227 1.207,1.367 2.125,2.984 2.75,4.863 0.617,1.887 0.926,3.898 0.926,6.047 0,0.785 -0.032,1.562 -0.094,2.328 -0.063,0.766 -0.137,1.371 -0.215,1.824 z m -41.539,-1.488 c 0,3.433 0.43,6.18 1.297,8.246 0.859,2.062 2.027,3.641 3.492,4.711 1.465,1.082 3.16,1.777 5.106,2.109 1.937,0.324 3.96,0.492 6.066,0.492 2.348,0 4.609,-0.214 6.777,-0.644 2.164,-0.442 3.903,-0.875 5.227,-1.34 V 22.773 c -1.488,-0.242 -2.949,-0.363 -4.391,-0.363 -1.402,0 -2.851,0.121 -4.332,0.363 v 25.11 c -1.031,0.289 -2.308,0.43 -3.84,0.43 -1.109,0 -2.086,-0.133 -2.906,-0.399 -0.828,-0.269 -1.512,-0.723 -2.074,-1.367 -0.559,-0.633 -0.973,-1.504 -1.238,-2.606 -0.266,-1.089 -0.403,-2.488 -0.403,-4.179 V 22.773 c -1.488,-0.242 -2.953,-0.363 -4.398,-0.363 -1.438,0 -2.899,0.121 -4.383,0.363 z M 356.801,39.02 c 1.734,0 2.98,-0.5 3.742,-1.489 0.762,-0.992 1.145,-2.355 1.145,-4.093 0,-1.735 -0.383,-3.106 -1.145,-4.125 -0.762,-1.008 -2.008,-1.512 -3.742,-1.512 -1.77,0 -3.051,0.504 -3.84,1.512 -0.781,1.019 -1.172,2.39 -1.172,4.125 0,1.738 0.391,3.101 1.172,4.093 0.789,0.989 2.07,1.489 3.84,1.489 m -2.535,16.918 C 353.355,55.898 352.602,56 352,56.25 c -0.59,0.25 -1.066,0.57 -1.422,0.961 -0.348,0.394 -0.59,0.824 -0.734,1.301 -0.153,0.476 -0.223,0.941 -0.223,1.398 0,1.567 0.59,2.633 1.766,3.188 1.172,0.562 2.75,0.836 4.734,0.836 2.602,0 4.692,-0.411 6.281,-1.239 1.59,-0.828 2.387,-1.941 2.387,-3.343 0,-0.422 -0.059,-0.809 -0.156,-1.176 -0.106,-0.375 -0.305,-0.719 -0.59,-1.024 -0.293,-0.316 -0.691,-0.574 -1.203,-0.777 -0.524,-0.207 -1.211,-0.312 -2.078,-0.312 z m 7.918,-6.442 c 3.757,0.078 6.519,0.918 8.296,2.504 1.766,1.598 2.661,3.855 2.661,6.793 0,1.734 -0.457,3.312 -1.364,4.746 -0.906,1.418 -2.144,2.633 -3.711,3.621 -1.57,0.992 -3.425,1.754 -5.57,2.293 -2.144,0.539 -4.461,0.809 -6.933,0.809 -2.473,0 -4.583,-0.199 -6.309,-0.586 -1.738,-0.399 -3.149,-0.946 -4.242,-1.645 -1.09,-0.707 -1.879,-1.574 -2.348,-2.609 -0.48,-1.027 -0.715,-2.164 -0.715,-3.406 0,-1.856 0.446,-3.391 1.332,-4.59 0.883,-1.199 2.078,-2.25 3.559,-3.16 -0.949,-0.578 -1.703,-1.289 -2.262,-2.133 -0.555,-0.852 -0.836,-1.938 -0.836,-3.258 0,-1.566 0.332,-2.852 0.992,-3.844 0.657,-0.992 1.629,-1.941 2.914,-2.847 -1.453,-1.036 -2.566,-2.297 -3.347,-3.786 -0.785,-1.488 -1.176,-3.14 -1.176,-4.96 0,-1.61 0.309,-3.106 0.926,-4.497 0.625,-1.382 1.523,-2.578 2.691,-3.593 1.18,-1.012 2.613,-1.805 4.309,-2.383 1.695,-0.582 3.586,-0.871 5.691,-0.871 2.055,0 3.953,0.324 5.696,0.961 1.73,0.64 3.171,1.457 4.328,2.449 0.781,-1.035 1.754,-1.809 2.91,-2.32 1.156,-0.516 2.722,-0.774 4.699,-0.774 0.082,0.531 0.156,1.059 0.219,1.578 0.062,0.516 0.094,1.059 0.094,1.641 0,0.66 -0.024,1.32 -0.071,1.984 -0.031,0.66 -0.113,1.34 -0.242,2.047 h -5.012 c 0.207,0.41 0.395,0.91 0.559,1.488 0.168,0.579 0.25,1.344 0.25,2.29 0,1.613 -0.309,3.113 -0.899,4.496 -0.597,1.382 -1.476,2.578 -2.632,3.562 -1.157,0.992 -2.567,1.777 -4.239,2.356 -1.668,0.578 -3.558,0.871 -5.66,0.871 -1.773,0 -3.363,-0.188 -4.765,-0.559 -0.704,0.453 -1.137,0.941 -1.301,1.457 -0.168,0.512 -0.246,1 -0.246,1.453 0,0.664 0.218,1.203 0.648,1.614 0.434,0.414 1.309,0.64 2.633,0.683 z m -44.387,5.332 c 0.324,0.082 0.703,0.121 1.113,0.121 h 1.297 c 0.582,0 1.148,-0.011 1.699,-0.027 0.571,-0.027 1.071,-0.055 1.524,-0.094 l -1.055,3.84 c -0.328,1.203 -0.699,2.129 -1.105,2.789 -0.422,0.656 -0.868,1.148 -1.336,1.457 -0.473,0.309 -0.965,0.496 -1.457,0.559 -0.497,0.066 -0.989,0.09 -1.485,0.09 -0.621,0 -1.238,-0.051 -1.851,-0.153 -0.625,-0.101 -1.118,-0.215 -1.489,-0.34 -0.332,0.825 -0.609,1.68 -0.836,2.571 -0.226,0.89 -0.339,1.832 -0.339,2.82 v 0.465 c 0,0.148 0.019,0.32 0.058,0.527 0.91,0.242 1.824,0.449 2.754,0.594 0.926,0.141 1.973,0.215 3.125,0.215 1.238,0 2.395,-0.114 3.465,-0.34 1.074,-0.234 2.043,-0.637 2.91,-1.211 0.871,-0.582 1.637,-1.387 2.32,-2.418 0.68,-1.035 1.266,-2.336 1.762,-3.898 l 11.945,-39.622 c -1.031,-0.203 -1.902,-0.316 -2.597,-0.339 -0.699,-0.016 -1.36,-0.024 -1.981,-0.024 -1.445,0 -2.847,0.121 -4.211,0.363 l -7.543,27.961 -6.687,-27.961 c -0.699,-0.16 -1.484,-0.265 -2.352,-0.304 -0.867,-0.043 -1.711,-0.059 -2.535,-0.059 -0.621,0 -1.293,0.008 -2.012,0.024 -0.722,0.023 -1.562,0.136 -2.507,0.339 z m -58.684,0 c 1.485,0.246 2.95,0.367 4.395,0.367 1.445,0 2.906,-0.121 4.394,-0.367 V 38.027 c 0,-1.73 0.164,-3.14 0.493,-4.218 0.332,-1.071 0.777,-1.907 1.332,-2.512 0.554,-0.594 1.187,-1 1.89,-1.207 0.696,-0.207 1.399,-0.309 2.098,-0.309 1.691,0 2.82,0.602 3.379,1.797 0.554,1.199 0.832,2.914 0.832,5.149 v 18.101 c 1.488,0.246 2.945,0.367 4.398,0.367 1.438,0 2.906,-0.121 4.391,-0.367 V 37.531 c 0,-1.613 0.172,-2.926 0.527,-3.937 0.352,-1.012 0.801,-1.797 1.36,-2.36 0.558,-0.554 1.175,-0.937 1.859,-1.144 0.676,-0.207 1.367,-0.309 2.074,-0.309 1.688,0 2.817,0.602 3.371,1.797 0.551,1.199 0.832,2.914 0.832,5.149 v 18.101 c 1.485,0.246 2.953,0.367 4.395,0.367 1.445,0 2.91,-0.121 4.394,-0.367 V 34.43 c 0,-4.258 -0.855,-7.383 -2.57,-9.391 -1.711,-2.004 -4.383,-3.004 -8.012,-3.004 -2.308,0 -4.222,0.567 -5.726,1.703 -1.508,1.141 -2.668,2.469 -3.492,4 -1.407,-3.804 -4.602,-5.703 -9.594,-5.703 -1.156,0 -2.195,0.153 -3.125,0.465 -0.934,0.305 -1.766,0.707 -2.504,1.207 -0.746,0.496 -1.387,1.055 -1.922,1.672 -0.539,0.621 -0.969,1.242 -1.301,1.859 -0.039,-0.289 -0.09,-0.636 -0.152,-1.054 -0.063,-0.407 -0.133,-0.836 -0.219,-1.266 -0.086,-0.438 -0.172,-0.852 -0.277,-1.246 -0.102,-0.391 -0.219,-0.688 -0.34,-0.899 -0.578,-0.121 -1.133,-0.214 -1.672,-0.273 -0.535,-0.066 -1.156,-0.09 -1.855,-0.09 -0.703,0 -1.344,0.024 -1.922,0.09 -0.574,0.059 -1.153,0.152 -1.731,0.273 z M 245.301,35.359 c -0.086,-1.984 -0.637,-3.586 -1.641,-4.804 -1.015,-1.219 -2.426,-1.828 -4.238,-1.828 -2.067,0 -3.637,0.578 -4.707,1.738 -1.07,1.156 -1.715,2.789 -1.918,4.894 z m -12.563,6.137 c 0.16,2.484 1.024,4.281 2.594,5.399 1.57,1.109 3.629,1.668 6.191,1.668 1.403,0 2.84,-0.137 4.301,-0.403 1.461,-0.269 2.86,-0.648 4.176,-1.14 0.453,0.82 0.844,1.812 1.176,2.968 0.332,1.164 0.519,2.399 0.554,3.719 -3.214,1.242 -6.843,1.859 -10.886,1.859 -2.973,0 -5.52,-0.41 -7.641,-1.238 -2.129,-0.828 -3.859,-1.973 -5.207,-3.437 -1.336,-1.469 -2.328,-3.211 -2.969,-5.235 -0.636,-2.031 -0.953,-4.242 -0.953,-6.636 0,-2.36 0.324,-4.567 0.985,-6.633 0.66,-2.071 1.644,-3.864 2.937,-5.395 1.305,-1.527 2.914,-2.734 4.832,-3.625 1.918,-0.89 4.156,-1.332 6.711,-1.332 2.234,0 4.215,0.391 5.945,1.172 1.731,0.789 3.207,1.863 4.422,3.227 1.219,1.367 2.137,2.984 2.754,4.863 0.621,1.887 0.93,3.898 0.93,6.047 0,0.785 -0.031,1.562 -0.094,2.328 -0.062,0.766 -0.137,1.371 -0.215,1.824 z m -34.429,6.387 c 0.496,0.164 1.019,0.269 1.574,0.305 0.558,0.042 1.129,0.066 1.703,0.066 2.684,0 4.789,-0.785 6.312,-2.356 1.528,-1.57 2.293,-4.027 2.293,-7.378 0,-2.973 -0.476,-5.235 -1.425,-6.782 -0.946,-1.554 -2.555,-2.332 -4.825,-2.332 -1.652,0 -3.003,0.551 -4.058,1.649 -1.051,1.09 -1.574,2.82 -1.574,5.172 z M 189.582,9.516 c 1.488,-0.25 2.93,-0.375 4.336,-0.375 1.441,0 2.906,0.125 4.391,0.375 v 16.363 c 0.617,-1.121 1.652,-2.035 3.093,-2.762 1.442,-0.722 3.094,-1.082 4.95,-1.082 1.859,0 3.582,0.332 5.168,0.988 1.589,0.661 2.96,1.661 4.117,3.012 1.156,1.34 2.062,3.024 2.722,5.047 0.657,2.027 0.993,4.426 0.993,7.191 0,2.688 -0.414,5.094 -1.243,7.223 -0.824,2.129 -2.019,3.934 -3.586,5.426 -1.57,1.488 -3.488,2.633 -5.757,3.437 -2.266,0.805 -4.825,1.207 -7.672,1.207 -0.906,0 -1.867,-0.039 -2.879,-0.121 -1.012,-0.086 -2.031,-0.195 -3.063,-0.343 -1.031,-0.145 -2.023,-0.325 -2.972,-0.563 -0.95,-0.223 -1.817,-0.48 -2.598,-0.766 z" /></g></g></svg>